  <svg
    width="1020"
    height="136"
    viewBox="0 0 1020 136"
    fill="none"
    xmlns="http://www.w3.org/2000/svg"
  >
  <!-- Path for P and E -->
    <path
      d="M36.75 134V123.75L46.5625 121.875V55.1875L36.75 53.3125V43H46.5625H79.75C86.625 43 92.5208 44.2083 97.4375 46.625C102.396 49 106.208 52.3542 108.875 56.6875C111.542 60.9792 112.875 65.9792 112.875 71.6875C112.875 77.4375 111.542 82.4583 108.875 86.75C106.208 91 102.396 94.3125 97.4375 96.6875C92.5208 99.0625 86.625 100.25 79.75 100.25H63.5625V121.875L73.375 123.75V134H36.75ZM63.5625 87.125H79.75C85.0833 87.125 89.1042 85.6875 91.8125 82.8125C94.5208 79.9375 95.875 76.2708 95.875 71.8125C95.875 67.3125 94.5208 63.5833 91.8125 60.625C89.1042 57.625 85.0833 56.125 79.75 56.125H63.5625V87.125ZM545.75 134V123.75L555.562 121.875V55.1875L545.75 53.3125V43H615.688V67H602.562L601.625 56.0625H572.562V80.375H603.938V93.5625H572.562V121H603.25L604.188 109.812H617.188V134H545.75Z"
 fill="#e54646"    />
    <path
      d="M124.688 134V126.125L134.875 124.375V76.0625L124.688 74.3125V66.375H145.875L146.938 75L147.062 76.1875C148.979 72.7292 151.333 70.0208 154.125 68.0625C156.958 66.1042 160.188 65.125 163.812 65.125C165.104 65.125 166.417 65.25 167.75 65.5C169.125 65.7083 170.104 65.9167 170.688 66.125L169.062 77.5625L160.5 77.0625C157.25 76.8542 154.521 77.6042 152.312 79.3125C150.104 80.9792 148.396 83.2292 147.188 86.0625V124.375L157.375 126.125V134H124.688ZM207.5 135.312C201.25 135.312 195.854 133.854 191.312 130.938C186.812 127.979 183.333 123.917 180.875 118.75C178.417 113.542 177.188 107.604 177.188 100.938V99.5625C177.188 92.8958 178.417 86.9792 180.875 81.8125C183.333 76.6042 186.812 72.5208 191.312 69.5625C195.854 66.6042 201.208 65.125 207.375 65.125C213.625 65.125 219 66.6042 223.5 69.5625C228.042 72.5208 231.542 76.5833 234 81.75C236.458 86.9167 237.688 92.8542 237.688 99.5625V100.938C237.688 107.646 236.458 113.604 234 118.812C231.542 123.979 228.062 128.021 223.562 130.938C219.062 133.854 213.708 135.312 207.5 135.312ZM207.5 125.688C211.417 125.688 214.688 124.625 217.312 122.5C219.979 120.333 221.979 117.396 223.312 113.688C224.688 109.938 225.375 105.688 225.375 100.938V99.5625C225.375 94.8125 224.688 90.5833 223.312 86.875C221.979 83.125 219.979 80.1875 217.312 78.0625C214.646 75.8958 211.333 74.8125 207.375 74.8125C203.458 74.8125 200.167 75.8958 197.5 78.0625C194.833 80.1875 192.833 83.125 191.5 86.875C190.167 90.5833 189.5 94.8125 189.5 99.5625V100.938C189.5 105.688 190.167 109.938 191.5 113.688C192.833 117.396 194.833 120.333 197.5 122.5C200.208 124.625 203.542 125.688 207.5 125.688ZM276 135.312C270.5 135.312 265.771 133.958 261.812 131.25C257.896 128.5 254.896 124.688 252.812 119.812C250.729 114.938 249.688 109.25 249.688 102.75V101.438C249.688 94.1875 250.729 87.8333 252.812 82.375C254.896 76.9167 257.917 72.6875 261.875 69.6875C265.833 66.6458 270.583 65.125 276.125 65.125C280.125 65.125 283.646 65.875 286.688 67.375C289.771 68.8333 292.396 70.9583 294.562 73.75V46.1875L284.375 44.4375V36.5H294.562H306.875V124.375L317.062 126.125V134H296.188L295.188 125.938C292.979 129.021 290.271 131.354 287.062 132.938C283.896 134.521 280.208 135.312 276 135.312ZM279.125 125.312C282.792 125.312 285.875 124.479 288.375 122.812C290.875 121.146 292.938 118.792 294.562 115.75V84.375C292.979 81.5417 290.917 79.2917 288.375 77.625C285.833 75.9583 282.792 75.125 279.25 75.125C275.333 75.125 272.104 76.25 269.562 78.5C267.021 80.7083 265.125 83.7917 263.875 87.75C262.625 91.6667 262 96.2292 262 101.438V102.75C262 109.542 263.396 115 266.188 119.125C268.979 123.25 273.292 125.312 279.125 125.312ZM355.312 135.312C347.979 135.312 342.25 132.958 338.125 128.25C334 123.542 331.938 116.208 331.938 106.25V76.0625L324.188 74.3125V66.375H331.938H344.25V106.375C344.25 113.583 345.312 118.542 347.438 121.25C349.562 123.958 352.875 125.312 357.375 125.312C361.75 125.312 365.354 124.438 368.188 122.688C371.062 120.896 373.229 118.375 374.688 115.125V76.0625L365.625 74.3125V66.375H374.688H387V124.375L394.75 126.125V134H375.938L375.125 124C373 127.625 370.25 130.417 366.875 132.375C363.542 134.333 359.688 135.312 355.312 135.312ZM434 135.312C427.875 135.312 422.542 133.896 418 131.062C413.458 128.188 409.938 124.208 407.438 119.125C404.938 114.042 403.688 108.167 403.688 101.5V98.875C403.688 92.4583 404.896 86.7083 407.312 81.625C409.729 76.5417 413.208 72.5208 417.75 69.5625C422.292 66.6042 427.708 65.125 434 65.125C439.458 65.125 444.229 66.0208 448.312 67.8125C452.438 69.6042 455.896 72.0625 458.688 75.1875L459 91.4375H449.375L447.25 79.625C445.833 78.1667 444.062 77 441.938 76.125C439.812 75.25 437.312 74.8125 434.438 74.8125C430.771 74.8125 427.542 75.8958 424.75 78.0625C422 80.2292 419.854 83.125 418.312 86.75C416.771 90.375 416 94.4167 416 98.875V101.5C416 106.417 416.708 110.688 418.125 114.312C419.583 117.938 421.646 120.75 424.312 122.75C427.021 124.708 430.229 125.688 433.938 125.688C438.104 125.688 441.562 124.542 444.312 122.25C447.062 119.958 448.75 116.812 449.375 112.812H460.438L460.562 113.188C460.354 117.062 459.208 120.688 457.125 124.062C455.042 127.438 452.062 130.167 448.188 132.25C444.354 134.292 439.625 135.312 434 135.312ZM494.062 135.062C489.062 135.062 485.083 133.604 482.125 130.688C479.208 127.729 477.75 123.021 477.75 116.562V75.5H467.062V66.375H477.75V50.0625H490.062V66.375H504.75V75.5H490.062V116.562C490.062 119.812 490.708 122.208 492 123.75C493.292 125.292 495.021 126.062 497.188 126.062C498.646 126.062 500.271 125.938 502.062 125.688C503.854 125.396 505.25 125.146 506.25 124.938L507.938 133C506.146 133.542 503.938 134.021 501.312 134.438C498.729 134.854 496.312 135.062 494.062 135.062ZM627.312 134V126.125L634.812 124.688L655 99.8125L635.25 75.75L628.562 74.3125V66.375H655.062V74.3125L648.312 75.0625L662.188 92.3125L675.688 75L668.438 74.3125V66.375H694.5V74.3125L687.625 75.75L669.312 99.625L690.375 124.688L697.375 126.125V134H668.688V126.125L676.812 125.438L662 107.375L647.625 125.438L654.938 126.125V134H627.312ZM703 134V126.125L713.188 124.375V46.1875L703 44.4375V36.5H725.5V75.375C727.833 72.125 730.688 69.6042 734.062 67.8125C737.438 66.0208 741.188 65.125 745.312 65.125C752.562 65.125 758.188 67.2917 762.188 71.625C766.188 75.9583 768.188 82.625 768.188 91.625V124.375L778.375 126.125V134H745.688V126.125L755.875 124.375V91.5C755.875 85.9167 754.667 81.7917 752.25 79.125C749.875 76.4583 746.312 75.125 741.562 75.125C738.188 75.125 735.104 75.9375 732.312 77.5625C729.562 79.1458 727.292 81.3125 725.5 84.0625V124.375L735.688 126.125V134H703ZM786.375 134V126.125L796.562 124.375V76.0625L786.375 74.3125V66.375H808.875V124.375L819.062 126.125V134H786.375ZM795.938 49.6875V36.5H808.875V49.6875H795.938ZM863.5 135.312C859.083 135.312 855.25 134.479 852 132.812C848.75 131.104 846.042 128.604 843.875 125.312L842.75 134H832.125V46.1875L821.938 44.4375V36.5H844.438V74.375C846.562 71.375 849.188 69.0833 852.312 67.5C855.479 65.9167 859.167 65.125 863.375 65.125C868.958 65.125 873.708 66.6458 877.625 69.6875C881.583 72.6875 884.604 76.9167 886.688 82.375C888.812 87.8333 889.875 94.1875 889.875 101.438V102.75C889.875 109.25 888.812 114.938 886.688 119.812C884.604 124.688 881.583 128.5 877.625 131.25C873.708 133.958 869 135.312 863.5 135.312ZM860.375 125.312C866.167 125.312 870.458 123.25 873.25 119.125C876.083 115 877.5 109.542 877.5 102.75V101.438C877.5 96.2292 876.875 91.6667 875.625 87.75C874.375 83.7917 872.479 80.7083 869.938 78.5C867.396 76.25 864.167 75.125 860.25 75.125C856.458 75.125 853.25 76.0417 850.625 77.875C848.042 79.7083 845.979 82.1667 844.438 85.25V115.125C845.979 118.25 848.062 120.729 850.688 122.562C853.354 124.396 856.583 125.312 860.375 125.312ZM898.75 134V126.125L908.938 124.375V76.0625L898.75 74.3125V66.375H921.25V124.375L931.438 126.125V134H898.75ZM908.312 49.6875V36.5H921.25V49.6875H908.312ZM963.812 135.062C958.812 135.062 954.833 133.604 951.875 130.688C948.958 127.729 947.5 123.021 947.5 116.562V75.5H936.812V66.375H947.5V50.0625H959.812V66.375H974.5V75.5H959.812V116.562C959.812 119.812 960.458 122.208 961.75 123.75C963.042 125.292 964.771 126.062 966.938 126.062C968.396 126.062 970.021 125.938 971.812 125.688C973.604 125.396 975 125.146 976 124.938L977.688 133C975.896 133.542 973.688 134.021 971.062 134.438C968.479 134.854 966.062 135.062 963.812 135.062Z"
      fill="#424141"
    />
  </svg>
